<svg version="1.1" xmlns="http://www.w3.org/2000/svg" style="display: block;" viewBox="0 0 2048 2048" width="1024" height="1024">
<defs>
	<linearGradient id="Gradient1" gradientUnits="userSpaceOnUse" x1="658.478" y1="1335.33" x2="626.575" y2="1298.87">
		<stop class="stop0" offset="0" stop-opacity="1" stop-color="rgb(252,150,128)"/>
		<stop class="stop1" offset="1" stop-opacity="1" stop-color="rgb(251,182,166)"/>
	</linearGradient>
</defs>
<path transform="translate(0,0)" fill="rgb(245,245,252)" d="M 0 0 L 2048 0 L 2048 2048 L 0 2048 L 0 0 z"/>
<path transform="translate(0,0)" fill="rgb(249,220,211)" d="M 787.711 702.255 C 794.433 701.325 800.84 703.265 807.494 704.206 C 845.478 709.577 880.483 722.596 911.284 745.83 C 930.954 760.668 946.336 776.664 960.539 796.619 C 963.826 801.237 968.408 806.966 969.751 812.532 C 990.591 838.528 995.147 873.945 1001.69 905.449 C 1004.76 920.217 1008.36 934.196 1009.38 949.356 C 1010.3 962.935 1008.57 990.258 1011.56 1001.64 C 1015.22 1015.59 1031.89 1025.66 1038.26 1038.76 C 1046.92 1048.69 1092.7 1090.57 1093.56 1099.71 C 1101.27 1110.32 1106.64 1124.33 1104.39 1137.61 C 1103.76 1141.31 1098.51 1157.89 1096.42 1160.66 L 1095.33 1161.13 C 1094.64 1158.68 1094.85 1159.93 1094.72 1157.37 C 1093.58 1158.49 1093.31 1158.48 1092.92 1160.1 C 1092.2 1163.07 1091.92 1165.2 1089.42 1167.22 C 1088.82 1166.93 1088.28 1166.52 1087.64 1166.35 C 1087.17 1166.23 1086.67 1166.36 1086.19 1166.36 L 1085.47 1167.4 L 1086.95 1168.48 C 1083.2 1172.12 1076.17 1174.67 1071.63 1177.89 C 1043.23 1198.07 1043.81 1205.63 1036.62 1237.35 C 1036.83 1239.29 1036.89 1241.1 1036.9 1243.05 C 1036.94 1247.42 1038.84 1253.23 1035.14 1256.5 C 1032.71 1258.64 1029.45 1259.41 1026.85 1261.68 L 1030.26 1255.65 L 1029.39 1255.28 C 1026.51 1257.74 1025.18 1261.27 1022.64 1263.67 C 1019.9 1266.26 1004.34 1269.38 999.613 1271.16 C 999.145 1271.34 998.673 1271.5 998.202 1271.67 C 997.992 1271.89 997.805 1272.13 997.573 1272.32 C 993.558 1275.65 978.434 1279.81 972.408 1282.68 C 951.378 1292.69 933.985 1308.37 923.317 1329.19 C 921.704 1332.33 918.948 1336.94 918.531 1340.47 C 918.013 1344.85 925.033 1349.19 927.156 1352.56 C 944.961 1363.93 957.642 1363.55 977.871 1362.65 C 982.545 1362.45 988.401 1362.1 992.875 1363.51 C 1002.39 1367.54 1006.57 1372 1010.66 1381.41 C 1012.52 1386.68 1017.6 1387.54 1019.36 1392.62 C 1017.98 1391.92 1016.68 1391.22 1015.34 1390.44 C 1016.35 1393.52 1019.21 1397.85 1019.65 1400.76 C 1020.08 1403.58 1017.51 1406.91 1017.26 1409.56 C 1017.07 1411.64 1019.95 1424.37 1020.33 1428 L 1019.51 1429.12 L 1017.74 1427.84 L 1015.6 1430.73 L 1016.65 1432.08 C 1013.86 1440.11 1013 1450.99 1007.52 1457.5 C 1008.06 1460.39 1009.72 1460.39 1009.46 1463.45 L 1007.86 1465.37 L 1007.03 1460.81 C 1001.57 1467.46 998.472 1475.97 992.74 1482.84 C 975.042 1504.06 953.352 1513.53 927.451 1521.09 C 920.014 1523.26 912.374 1525.82 904.624 1526.53 C 895.123 1527.39 884.888 1528.27 875.361 1527.92 C 866.099 1527.59 847.415 1524.07 839.367 1525.67 C 831.497 1527.22 815.843 1538.97 810.639 1545.06 C 791.875 1567.03 793.588 1595.4 787.332 1621.73 C 785.467 1629.58 780.997 1636.16 779.56 1643.95 C 779.266 1645.55 778.841 1646.34 777.792 1647.56 L 776.862 1644.84 C 765.632 1654.65 756.151 1661.58 742.36 1667.53 C 730.402 1672.69 679.955 1668.07 663.568 1668.11 C 648.842 1668.15 634.209 1669.51 619.499 1669.63 C 603.103 1669.75 586.498 1669.98 570.12 1669.53 C 560.865 1669.28 551.648 1668.35 542.378 1668.29 L 475.53 1667.5 C 465.451 1667.44 455.267 1668.08 445.206 1667.65 C 440.91 1667.47 436.576 1666.43 432.501 1665.1 C 427.418 1665.19 422.62 1664.04 417.736 1662.81 C 411.815 1661.68 407.247 1657.42 403.185 1653.28 C 398.428 1648.56 395.941 1638.97 396.508 1632.44 C 397.917 1616.24 402.85 1599.03 406.311 1583.08 C 419.207 1523.65 440.388 1454.25 436.824 1393.39 C 432.478 1319.18 399.86 1282.13 363.25 1222.68 C 334.817 1176.5 314.682 1127.05 312.63 1072.15 C 312.057 1056.82 313.489 1041.29 314.684 1026.01 C 321.049 944.647 347.737 868.484 404.214 808.014 C 436.931 772.984 476.977 747.893 520.776 729.203 C 524.751 727.506 533.827 721.867 537.462 721.731 C 540.024 725.938 536.591 731.156 539.61 736.5 C 539.767 736.776 539.932 737.048 540.093 737.322 C 540.948 745.622 542.695 762.345 549.225 768.264 C 554.49 777.792 563.599 788.423 573.98 792.47 C 581.48 796.293 588.854 798.712 597.148 800.201 C 622.258 804.709 684.024 805.095 708.896 801.083 C 709.62 801.502 710.03 801.818 710.955 801.902 C 726.266 803.285 745.837 791.31 756.427 781.011 C 778.092 759.942 769.342 733.125 769.476 706.992 L 769.49 705.492 C 774.417 705.561 779.305 705.382 784.225 705.17 C 786.207 704.166 786.773 704.366 787.711 702.255 z"/>
<path transform="translate(0,0)" fill="rgb(200,196,201)" d="M 1010.66 1381.41 C 1012.52 1386.68 1017.6 1387.54 1019.36 1392.62 C 1017.98 1391.92 1016.68 1391.22 1015.34 1390.44 C 1016.35 1393.52 1019.21 1397.85 1019.65 1400.76 C 1020.08 1403.58 1017.51 1406.91 1017.26 1409.56 C 1017.07 1411.64 1019.95 1424.37 1020.33 1428 L 1019.51 1429.12 L 1017.74 1427.84 L 1015.6 1430.73 L 1016.65 1432.08 C 1013.86 1440.11 1013 1450.99 1007.52 1457.5 C 1008.06 1460.39 1009.72 1460.39 1009.46 1463.45 L 1007.86 1465.37 L 1007.03 1460.81 C 1001.57 1467.46 998.472 1475.97 992.74 1482.84 C 975.042 1504.06 953.352 1513.53 927.451 1521.09 C 920.014 1523.26 912.374 1525.82 904.624 1526.53 C 895.123 1527.39 884.888 1528.27 875.361 1527.92 C 866.099 1527.59 847.415 1524.07 839.367 1525.67 C 831.497 1527.22 815.843 1538.97 810.639 1545.06 C 791.875 1567.03 793.588 1595.4 787.332 1621.73 C 785.467 1629.58 780.997 1636.16 779.56 1643.95 C 779.266 1645.55 778.841 1646.34 777.792 1647.56 L 776.862 1644.84 C 765.632 1654.65 756.151 1661.58 742.36 1667.53 C 730.402 1672.69 679.955 1668.07 663.568 1668.11 C 648.842 1668.15 634.209 1669.51 619.499 1669.63 C 603.103 1669.75 586.498 1669.98 570.12 1669.53 C 560.865 1669.28 551.648 1668.35 542.378 1668.29 L 475.53 1667.5 C 465.451 1667.44 455.267 1668.08 445.206 1667.65 C 440.91 1667.47 436.576 1666.43 432.501 1665.1 C 465.935 1663.59 500.278 1665.98 533.796 1666.58 C 578.127 1667.37 622.382 1666.83 666.708 1666.71 C 687.642 1666.65 709.679 1669.17 730.414 1667.01 C 806.435 1659.08 764.955 1568.11 792.178 1535.89 C 808.05 1517.11 844.915 1523.96 866.535 1524.86 C 878.95 1525.38 891.565 1525.22 903.924 1523.88 L 905.209 1523.73 C 916.237 1522.11 927.014 1519.1 937.279 1514.75 C 978.184 1497.33 1001.82 1462.25 1006.16 1418.65 C 1007.25 1407.74 1005.99 1392.16 1010.28 1382.23 C 1010.4 1381.95 1010.54 1381.68 1010.66 1381.41 z"/>
<path transform="translate(0,0)" fill="rgb(200,196,201)" d="M 1030.51 1243.65 L 1030.56 1236.5 C 1030.72 1222.97 1025.43 1208.65 1027.24 1195.38 C 1030.1 1174.51 1073.15 1172.87 1087.2 1152 C 1095.49 1139.67 1095.46 1117.87 1092.53 1103.8 C 1092.04 1101.48 1092.44 1101.67 1093.56 1099.71 C 1101.27 1110.32 1106.64 1124.33 1104.39 1137.61 C 1103.76 1141.31 1098.51 1157.89 1096.42 1160.66 L 1095.33 1161.13 C 1094.64 1158.68 1094.85 1159.93 1094.72 1157.37 C 1093.58 1158.49 1093.31 1158.48 1092.92 1160.1 C 1092.2 1163.07 1091.92 1165.2 1089.42 1167.22 C 1088.82 1166.93 1088.28 1166.52 1087.64 1166.35 C 1087.17 1166.23 1086.67 1166.36 1086.19 1166.36 L 1085.47 1167.4 L 1086.95 1168.48 C 1083.2 1172.12 1076.17 1174.67 1071.63 1177.89 C 1043.23 1198.07 1043.81 1205.63 1036.62 1237.35 C 1036.83 1239.29 1036.89 1241.1 1036.9 1243.05 C 1036.94 1247.42 1038.84 1253.23 1035.14 1256.5 C 1032.71 1258.64 1029.45 1259.41 1026.85 1261.68 L 1030.26 1255.65 L 1029.39 1255.28 C 1026.51 1257.74 1025.18 1261.27 1022.64 1263.67 C 1019.9 1266.26 1004.34 1269.38 999.613 1271.16 C 999.145 1271.34 998.673 1271.5 998.202 1271.67 C 997.992 1271.89 997.805 1272.13 997.573 1272.32 C 993.558 1275.65 978.434 1279.81 972.408 1282.68 C 951.378 1292.69 933.985 1308.37 923.317 1329.19 C 921.704 1332.33 918.948 1336.94 918.531 1340.47 C 918.013 1344.85 925.033 1349.19 927.156 1352.56 C 929.208 1355.65 932.683 1357.97 935.355 1360.58 L 934.135 1360.69 C 927.86 1357.88 923.445 1354.04 918.76 1349.07 C 914.242 1343.16 910.236 1337.29 908.287 1330.01 C 906.217 1322.28 907.116 1314.32 911.204 1307.39 C 926.289 1281.84 972.098 1271.21 998.904 1264.62 C 1016.03 1260.41 1021.17 1259.09 1030.51 1243.65 z"/>
<path transform="translate(0,0)" fill="rgb(250,168,151)" d="M 417.736 1662.81 C 419.129 1662.15 420.45 1661.46 422.015 1661.32 C 430.659 1660.53 440.377 1661.73 449.134 1661.76 C 474.164 1661.66 499.193 1661.97 524.212 1662.69 C 572.294 1663.66 620.496 1662.96 668.594 1663.01 C 689.531 1663.04 722.404 1665.79 742.021 1660.73 C 746.394 1659.6 750.512 1657.08 754.189 1654.52 C 789.028 1630.2 768.691 1568.26 786.052 1538.63 C 793.815 1525.38 804.337 1524.26 817.897 1520.92 C 832.114 1517.42 849.093 1522.08 863.35 1522.32 C 874.902 1522.51 886.689 1520.56 898.167 1521.48 C 900.958 1521.7 902.805 1522.36 905.209 1523.73 L 903.924 1523.88 C 891.565 1525.22 878.95 1525.38 866.535 1524.86 C 844.915 1523.96 808.05 1517.11 792.178 1535.89 C 764.955 1568.11 806.435 1659.08 730.414 1667.01 C 709.679 1669.17 687.642 1666.65 666.708 1666.71 C 622.382 1666.83 578.127 1667.37 533.796 1666.58 C 500.278 1665.98 465.935 1663.59 432.501 1665.1 C 427.418 1665.19 422.62 1664.04 417.736 1662.81 z"/>
<path transform="translate(0,0)" fill="rgb(200,196,201)" d="M 969.751 812.532 C 990.591 838.528 995.147 873.945 1001.69 905.449 C 1004.76 920.217 1008.36 934.196 1009.38 949.356 C 1010.3 962.935 1008.57 990.258 1011.56 1001.64 C 1015.22 1015.59 1031.89 1025.66 1038.26 1038.76 L 1036.49 1041.38 C 984.432 989.008 1002.68 975.699 995.918 910.311 C 995.053 901.952 995.127 891.971 992.513 884.01 C 992.067 882.653 991.714 881.63 991.592 880.191 C 989.701 857.806 976.589 836.59 968.663 815.912 L 969.751 812.532 z"/>
<path transform="translate(0,0)" fill="rgb(245,158,127)" d="M 536.564 1035.27 C 543.045 1034.78 549.05 1035.22 555.498 1035.9 C 562.8 1036.67 575.246 1040.52 581.036 1045.19 C 584.562 1048.04 588.687 1053.24 588.697 1058.02 C 588.702 1060.52 588.107 1062.69 586.147 1064.38 C 584.962 1065.4 581.818 1066.84 580.187 1066.87 C 575.545 1066.95 558.136 1056.56 549.06 1055.19 C 534.658 1053.01 518.138 1059.03 506.652 1067.66 C 492.202 1078.53 482.938 1095.53 480.411 1113.32 C 477.385 1134.62 483.685 1155.68 496.611 1172.67 C 510.437 1190.85 528.133 1200.22 550.611 1203.16 C 556.096 1203.24 566.361 1200.26 570.883 1203.35 C 573.558 1205.18 575.668 1209.24 576.381 1212.34 C 576.806 1214.2 576.619 1216.27 575.48 1217.82 C 573.266 1220.85 569.515 1221.89 565.963 1222.48 C 543.52 1226.15 518.764 1217.17 500.676 1204.27 C 479.829 1189.41 464.319 1165.57 460.196 1140.19 C 456.191 1115.54 463.343 1089.38 477.974 1069.3 C 492.241 1049.72 512.956 1038.87 536.564 1035.27 z"/>
<path transform="translate(0,0)" fill="url(#Gradient1)" d="M 646.545 1287.2 C 667.182 1283.02 687.317 1296.31 691.579 1316.93 C 695.84 1337.55 682.622 1357.74 662.017 1362.08 C 641.303 1366.44 620.99 1353.13 616.706 1332.4 C 612.422 1311.68 625.799 1291.41 646.545 1287.2 z"/>
<path transform="translate(0,0)" fill="rgb(250,168,151)" d="M 773.667 1273.3 C 770.062 1268.63 768.421 1262.15 768.4 1256.32 C 768.446 1246.67 772.487 1237.48 779.561 1230.92 C 786.767 1224.24 795.319 1221.62 805.013 1221.9 C 810.337 1222.08 815.36 1222.32 820.297 1224.56 C 830.009 1227.88 838.659 1235.16 843.125 1244.46 C 847.072 1252.69 847.5 1261.62 844.276 1270.16 C 840.412 1280.39 832.001 1289.9 821.917 1294.32 C 813.713 1297.91 804.99 1297.53 796.74 1294.27 C 788.718 1291.1 777.679 1283.32 774.317 1275.27 C 773.739 1273.88 773.838 1274.25 773.667 1273.3 z"/>
<path transform="translate(0,0)" fill="rgb(245,158,127)" d="M 805.013 1221.9 C 810.337 1222.08 815.36 1222.32 820.297 1224.56 C 830.009 1227.88 838.659 1235.16 843.125 1244.46 C 847.072 1252.69 847.5 1261.62 844.276 1270.16 C 840.412 1280.39 832.001 1289.9 821.917 1294.32 C 813.713 1297.91 804.99 1297.53 796.74 1294.27 C 788.718 1291.1 777.679 1283.32 774.317 1275.27 C 773.739 1273.88 773.838 1274.25 773.667 1273.3 L 774.645 1273.44 C 775.581 1274.63 776.437 1275.44 777.657 1276.34 C 777.825 1274.06 777.836 1274.96 777.697 1272.69 L 777.584 1271.11 C 784.391 1276.01 794.552 1274.69 802.68 1275.15 C 805.361 1273.62 808.066 1272.08 810.632 1270.37 C 816.875 1266.18 820.227 1261.06 821.621 1253.68 C 822.375 1249.75 823.208 1245.83 824.119 1241.92 C 823.423 1240.31 823.713 1238.28 823.166 1236.54 C 820.695 1228.67 811.6 1226.47 804.97 1223.45 L 805.013 1221.9 z"/>
<path transform="translate(0,0)" fill="rgb(250,168,151)" d="M 698.677 1142.54 C 719.417 1139.43 738.723 1153.8 741.693 1174.56 C 744.663 1195.32 730.16 1214.53 709.38 1217.36 C 688.799 1220.16 669.816 1205.83 666.875 1185.26 C 663.933 1164.7 678.137 1145.62 698.677 1142.54 z"/>
<path transform="translate(0,0)" fill="rgb(250,168,151)" d="M 759.037 1391.47 C 777.835 1387.59 796.243 1399.61 800.246 1418.38 C 804.248 1437.16 792.342 1455.64 773.594 1459.76 C 754.68 1463.91 735.998 1451.88 731.961 1432.94 C 727.923 1414 740.073 1395.39 759.037 1391.47 z"/>
<path transform="translate(0,0)" fill="rgb(214,128,104)" d="M 909.704 980.806 C 913.058 980.48 916.369 979.999 919.484 981.621 C 921.922 982.89 923.285 984.9 924.177 987.434 C 926.475 993.965 923.126 1002.62 920.11 1008.36 C 911.406 1024.93 895.105 1037.35 877.351 1042.81 C 859.392 1048.33 842.658 1045.94 826.22 1037.25 C 824.314 1036.09 822.471 1034.87 820.735 1033.45 C 817.243 1030.61 813.246 1026.91 813.31 1022 C 813.351 1018.92 814.91 1015.94 817.184 1013.91 C 819.572 1011.79 822.271 1010.72 825.516 1011.16 C 835.273 1012.49 843.091 1021.26 856.724 1021.79 C 863.343 1022.05 869.764 1020.33 875.83 1017.8 C 900.671 1007.48 895.442 993.402 909.005 981.393 C 909.233 981.191 909.471 981.002 909.704 980.806 z"/>
<path transform="translate(0,0)" fill="rgb(170,207,243)" d="M 1150.23 919.48 C 1149.78 919.142 1149.29 918.846 1148.87 918.467 C 1139.41 909.984 1131.1 897.916 1123.48 887.689 C 1077.51 825.166 1051.19 750.38 1047.85 672.849 C 1044.64 606.347 1054.74 554.461 1083.91 494.622 C 1101.32 458.809 1123.84 425.714 1150.76 396.372 C 1218.01 322.431 1314.81 280.904 1414.01 276.498 C 1489.8 273.223 1564.85 292.6 1629.59 332.157 C 1641.5 339.536 1654.02 347.459 1664.37 356.937 C 1700.42 383.349 1732.79 421.727 1755.58 460.011 C 1775.29 484.248 1783.45 515.769 1794.69 544.315 C 1797.35 551.065 1797.6 558.724 1799.29 565.754 C 1800.65 571.432 1802.86 575.434 1803.52 581.472 C 1803.71 583.31 1804.04 585.359 1804.98 586.962 L 1807.26 577.477 L 1807.75 577.261 C 1808.86 588.58 1807.61 599.246 1808.1 610.402 C 1808.29 614.596 1810.61 618.157 1810.96 622.392 C 1811.07 618.916 1810.78 615.403 1812.55 612.298 L 1813.7 613.657 L 1812.68 612.283 L 1811.51 614.085 L 1813.69 613.753 C 1815.6 625.913 1815.47 638.284 1817.34 650.378 C 1820.03 667.705 1819.45 693.772 1812.38 710.063 C 1813.02 711.926 1813.68 713.413 1814.75 715.069 C 1813.88 716.486 1813.14 717.481 1811.89 718.58 C 1811.47 722.881 1811.02 727.161 1810.42 731.441 L 1810.28 730.991 C 1809.12 738.697 1805.92 745.116 1804.38 752.448 C 1803.16 758.282 1803.54 764.671 1801.8 770.361 C 1798.03 782.691 1791.95 794.431 1788.78 806.922 C 1784.02 825.677 1768.63 845.096 1761.04 862.896 C 1746.32 888.571 1720.17 922.985 1697.19 941.655 L 1698.1 940.441 C 1692.18 945.214 1686.3 950.976 1680 955.16 C 1679.44 955.921 1678.58 957.529 1677.92 958.1 C 1677.59 958.386 1677.14 958.486 1676.76 958.691 C 1673.59 960.379 1669.44 965.098 1666.24 965.709 C 1646.97 984.141 1621.12 992.482 1598.99 1006.28 C 1597.62 1007.14 1597.11 1007.52 1596.4 1008.95 L 1595.12 1008.86 L 1594.5 1008.05 C 1580.02 1013.05 1566.3 1020.58 1551.76 1025.35 C 1541.37 1028.75 1529.47 1028.24 1519.66 1033.35 C 1519.3 1033.54 1518.95 1033.76 1518.6 1033.96 C 1516.74 1033.56 1514.46 1032.83 1512.57 1033.14 C 1512.19 1033.2 1511.84 1033.36 1511.47 1033.43 C 1509.1 1033.9 1507.52 1033.83 1505.67 1035.52 L 1506.12 1037.09 C 1503.73 1038.22 1501.76 1035.72 1499.41 1035.67 C 1494.95 1035.57 1488.05 1037.89 1483.46 1038.71 C 1488.75 1038.74 1497.35 1038.29 1502.07 1040.54 C 1487.31 1042.58 1473.84 1042.11 1459.11 1042.17 C 1443.36 1042.23 1427.66 1043.02 1411.91 1042.6 C 1400.78 1042.31 1389.67 1040.84 1378.56 1040.69 C 1370.56 1040.59 1360.46 1043.54 1352.89 1040.78 C 1357.69 1039.75 1362.77 1040.55 1367.35 1039.32 C 1367.81 1039.19 1368.26 1039.05 1368.71 1038.91 L 1367.07 1039.64 L 1368.73 1039.05 L 1367.5 1038.35 L 1367.16 1039.96 C 1366.3 1037.07 1365.51 1037.85 1362.68 1037.34 C 1352.51 1035.49 1342.29 1033.75 1332.3 1031.08 C 1322.41 1028.44 1277.48 1014.08 1271.05 1007.5 C 1229.88 991.186 1179.85 952.489 1150.23 919.48 z"/>
<path transform="translate(0,0)" fill="rgb(200,196,201)" d="M 1755.58 460.011 C 1775.29 484.248 1783.45 515.769 1794.69 544.315 C 1797.35 551.065 1797.6 558.724 1799.29 565.754 C 1800.65 571.432 1802.86 575.434 1803.52 581.472 C 1803.71 583.31 1804.04 585.359 1804.98 586.962 L 1807.26 577.477 L 1807.75 577.261 C 1808.86 588.58 1807.61 599.246 1808.1 610.402 C 1808.29 614.596 1810.61 618.157 1810.96 622.392 C 1811.07 618.916 1810.78 615.403 1812.55 612.298 L 1813.7 613.657 L 1812.68 612.283 L 1811.51 614.085 L 1813.69 613.753 C 1815.6 625.913 1815.47 638.284 1817.34 650.378 C 1820.03 667.705 1819.45 693.772 1812.38 710.063 C 1813.02 711.926 1813.68 713.413 1814.75 715.069 C 1813.88 716.486 1813.14 717.481 1811.89 718.58 C 1811.47 722.881 1811.02 727.161 1810.42 731.441 L 1810.28 730.991 C 1809.12 738.697 1805.92 745.116 1804.38 752.448 C 1803.16 758.282 1803.54 764.671 1801.8 770.361 C 1798.03 782.691 1791.95 794.431 1788.78 806.922 C 1784.02 825.677 1768.63 845.096 1761.04 862.896 C 1746.32 888.571 1720.17 922.985 1697.19 941.655 L 1698.1 940.441 C 1692.18 945.214 1686.3 950.976 1680 955.16 C 1679.44 955.921 1678.58 957.529 1677.92 958.1 C 1677.59 958.386 1677.14 958.486 1676.76 958.691 C 1673.59 960.379 1669.44 965.098 1666.24 965.709 C 1646.97 984.141 1621.12 992.482 1598.99 1006.28 C 1597.62 1007.14 1597.11 1007.52 1596.4 1008.95 L 1595.12 1008.86 L 1594.5 1008.05 C 1580.02 1013.05 1566.3 1020.58 1551.76 1025.35 C 1541.37 1028.75 1529.47 1028.24 1519.66 1033.35 C 1519.3 1033.54 1518.95 1033.76 1518.6 1033.96 C 1516.74 1033.56 1514.46 1032.83 1512.57 1033.14 C 1512.19 1033.2 1511.84 1033.36 1511.47 1033.43 C 1509.1 1033.9 1507.52 1033.83 1505.67 1035.52 L 1506.12 1037.09 C 1503.73 1038.22 1501.76 1035.72 1499.41 1035.67 C 1494.95 1035.57 1488.05 1037.89 1483.46 1038.71 C 1488.75 1038.74 1497.35 1038.29 1502.07 1040.54 C 1487.31 1042.58 1473.84 1042.11 1459.11 1042.17 C 1443.36 1042.23 1427.66 1043.02 1411.91 1042.6 C 1400.78 1042.31 1389.67 1040.84 1378.56 1040.69 C 1370.56 1040.59 1360.46 1043.54 1352.89 1040.78 C 1357.69 1039.75 1362.77 1040.55 1367.35 1039.32 C 1367.81 1039.19 1368.26 1039.05 1368.71 1038.91 L 1367.07 1039.64 L 1368.73 1039.05 L 1367.5 1038.35 L 1367.16 1039.96 C 1366.3 1037.07 1365.51 1037.85 1362.68 1037.34 C 1352.51 1035.49 1342.29 1033.75 1332.3 1031.08 C 1322.41 1028.44 1277.48 1014.08 1271.05 1007.5 C 1271.42 1007.57 1271.79 1007.63 1272.16 1007.72 C 1277.99 1009.17 1283.95 1012.21 1289.56 1014.44 C 1301.08 1019.03 1312.78 1023.48 1324.76 1026.69 C 1397.4 1046.2 1466.13 1046.31 1537.88 1023.02 C 1550.88 1018.8 1563.09 1013.26 1575.82 1008.43 C 1631.03 982.695 1679.42 949.668 1718.12 902.104 C 1781.71 823.944 1816.68 721.97 1806.32 620.843 C 1803.06 576.088 1790.56 530.682 1771.4 490.097 C 1766.57 479.854 1760.42 470.272 1755.58 460.011 z"/>
<path transform="translate(0,0)" fill="rgb(245,245,252)" d="M 1289.98 486.755 C 1278.57 468.229 1239.08 441.529 1233.43 425.089 C 1232.02 420.994 1232.46 416.791 1234.6 413.037 C 1238.2 406.695 1245.41 402.207 1251.26 398.127 C 1279.23 378.599 1310.68 364.856 1343.5 355.733 C 1420.1 334.439 1500.07 344.529 1570.36 381.159 C 1575.75 383.973 1579.48 389.132 1584.88 392.127 C 1590.45 395.217 1602.74 400.624 1604.82 406.709 C 1630.7 425.497 1652.71 446.732 1672.75 471.655 C 1682.34 486.109 1692.48 500.197 1700.28 515.737 C 1730.27 575.447 1739.14 647.162 1726.01 712.623 C 1719.01 747.48 1691.6 823.861 1661.36 845.004 C 1659.31 846.439 1657.23 847.105 1654.74 847.26 C 1653.93 847.704 1652.91 847.921 1652.03 848.199 C 1647.4 846.696 1643.73 843.99 1640.11 840.787 C 1597.72 803.265 1560.25 760.909 1520.24 720.956 L 1443.32 642.65 C 1432.4 631.358 1419.75 621.394 1410.89 608.322 L 1318.46 515.525 C 1308.83 505.998 1300.01 495.927 1289.98 486.755 z"/>
<path transform="translate(0,0)" fill="rgb(143,181,228)" d="M 1289.98 486.755 C 1278.57 468.229 1239.08 441.529 1233.43 425.089 C 1232.02 420.994 1232.46 416.791 1234.6 413.037 C 1238.2 406.695 1245.41 402.207 1251.26 398.127 C 1279.23 378.599 1310.68 364.856 1343.5 355.733 C 1420.1 334.439 1500.07 344.529 1570.36 381.159 C 1575.75 383.973 1579.48 389.132 1584.88 392.127 C 1590.45 395.217 1602.74 400.624 1604.82 406.709 C 1589.55 396.34 1573.28 387.533 1556.26 380.419 C 1545.55 374.207 1532.87 370.344 1521.04 366.718 C 1465.95 349.567 1407.13 348.306 1351.35 363.079 C 1316.96 371.947 1284.44 386.947 1255.36 407.357 C 1251 410.373 1243.25 415.118 1240.54 419.686 C 1239.32 421.74 1239.25 422.712 1240.03 424.918 C 1243.1 433.603 1255.83 443.496 1262.56 449.968 C 1297.28 486.826 1333.43 522.433 1368.98 558.502 C 1384.66 574.409 1402.5 590.237 1416.53 607.517 C 1435.18 624.412 1452.03 643.798 1469.71 661.743 L 1594.15 787.981 C 1612.74 806.702 1634.04 831.653 1654.74 847.26 C 1653.93 847.704 1652.91 847.921 1652.03 848.199 C 1647.4 846.696 1643.73 843.99 1640.11 840.787 C 1597.72 803.265 1560.25 760.909 1520.24 720.956 L 1443.32 642.65 C 1432.4 631.358 1419.75 621.394 1410.89 608.322 L 1318.46 515.525 C 1308.83 505.998 1300.01 495.927 1289.98 486.755 z"/>
<path transform="translate(0,0)" fill="rgb(200,196,201)" d="M 1262.56 449.968 C 1255.83 443.496 1243.1 433.603 1240.03 424.918 C 1239.25 422.712 1239.32 421.74 1240.54 419.686 C 1243.25 415.118 1251 410.373 1255.36 407.357 C 1284.44 386.947 1316.96 371.947 1351.35 363.079 C 1407.13 348.306 1465.95 349.567 1521.04 366.718 C 1532.87 370.344 1545.55 374.207 1556.26 380.419 C 1555.96 380.357 1555.67 380.3 1555.38 380.234 C 1546.4 378.205 1537.96 373.739 1529.22 370.846 C 1519.3 367.562 1508.62 365.101 1498.47 362.594 C 1473.5 356.429 1396.79 349.881 1374.56 361.126 C 1373.58 361.62 1373.73 361.553 1373.22 362.262 L 1373.69 363.438 L 1378.99 361.846 C 1376.96 364.849 1372.38 366.949 1368.78 367.645 C 1360.85 369.175 1349.34 366.716 1343.85 374.1 C 1342.68 375.673 1341.87 377.352 1340.22 378.526 C 1335.86 381.636 1299.95 393.451 1292.76 395.055 L 1294.06 396.555 L 1293.8 396.394 L 1297.39 396.486 L 1297.64 396.902 C 1297.27 396.908 1296.9 396.903 1296.52 396.92 C 1294.34 397.024 1296.09 396.871 1293.88 397.637 C 1290.53 398.795 1286.99 399.057 1283.72 400.525 L 1289.71 401.998 C 1287.3 402.808 1282.71 402.103 1281 402.98 C 1277.96 404.535 1271.41 412.02 1267.93 414.728 C 1269.62 415.505 1270.88 415.416 1272.71 415.487 C 1272.54 416.915 1272.86 416.335 1271.65 417.279 C 1266.58 421.251 1263.17 422.448 1256.8 423.331 L 1257.37 423.02 C 1253.67 425.01 1251.85 429.33 1249.57 432.744 L 1251.86 432.561 C 1251.66 434.089 1251.28 434.801 1252.16 436.28 C 1252.35 436.595 1254.15 438.359 1254.3 438.512 C 1257.52 441.831 1260.4 445.866 1262.56 449.968 z"/>
<path transform="translate(0,0)" fill="rgb(170,207,243)" d="M 1589.28 444.418 C 1594.62 443.706 1600.16 443.79 1605.13 446.019 C 1612.36 449.255 1617.22 455.73 1619.67 463.133 C 1626.05 482.419 1617.15 531.317 1608.28 549.632 C 1586.82 593.903 1561.63 621.614 1513.98 638.076 C 1507.19 640.423 1488.63 646.451 1482.67 642.41 C 1479.59 640.326 1479.32 636.239 1478.95 632.895 C 1479.69 630.814 1480.2 628.79 1480.65 626.63 C 1478.56 626.76 1470.5 636.266 1467.52 638.209 C 1465.8 638.298 1464.18 638.421 1462.51 637.902 C 1455.23 635.64 1450.43 627.709 1447.34 621.3 C 1465.16 573.948 1453.2 544.702 1490.09 498.702 C 1517.03 465.116 1546.95 448.871 1589.28 444.418 z"/>
<path transform="translate(0,0)" fill="rgb(197,226,253)" d="M 1549.09 545.169 L 1554.42 545.609 C 1548.78 554.944 1546.01 565.818 1540.66 575.327 C 1531.37 591.859 1503.95 623.406 1487.48 632.995 C 1486.18 632.826 1485.73 632.489 1484.64 631.809 C 1483.42 619.713 1509.29 596.804 1516.9 588.582 C 1523.85 581.082 1530.69 573.265 1537.03 565.244 C 1542.03 558.907 1545.98 552.635 1549.09 545.169 z"/>
<path transform="translate(0,0)" fill="rgb(245,245,252)" d="M 1139.63 760.608 C 1129.33 744.471 1122.17 684.102 1121.69 663.53 C 1119.91 607.902 1133.41 552.849 1160.7 504.348 C 1165.77 495.265 1171.67 483.686 1179.09 476.405 C 1181.05 474.484 1181.39 474.542 1183.99 474.563 C 1187.4 476.261 1189.68 478.032 1192.32 480.782 C 1196.65 484.979 1204.55 491.039 1207.25 496.194 C 1240.5 526.658 1271.4 560.384 1303.1 592.462 L 1484.16 774.759 C 1501.88 792.323 1519.41 810.093 1536.72 828.065 C 1545.62 837.229 1554.94 848.903 1565.17 856.345 C 1572.55 864.555 1604.45 892.181 1604.17 901.144 C 1592.82 920.644 1526.12 945.741 1502.66 951.911 C 1424.56 972.515 1341.48 961.353 1271.59 920.866 C 1267.72 918.588 1263.7 916.357 1260.05 913.749 C 1233.43 897.926 1208.12 873.78 1188.86 849.716 C 1166.86 825.265 1150.47 791.297 1139.63 760.608 z"/>
<path transform="translate(0,0)" fill="rgb(249,220,211)" d="M 1139.63 760.608 C 1129.33 744.471 1122.17 684.102 1121.69 663.53 C 1119.91 607.902 1133.41 552.849 1160.7 504.348 C 1165.77 495.265 1171.67 483.686 1179.09 476.405 C 1181.05 474.484 1181.39 474.542 1183.99 474.563 C 1187.4 476.261 1189.68 478.032 1192.32 480.782 C 1196.65 484.979 1204.55 491.039 1207.25 496.194 L 1205.35 495.989 C 1201.62 492.512 1197.37 487.48 1192.63 485.581 L 1190.32 485.808 C 1189.19 487.325 1188.28 487.935 1188.17 489.789 C 1187.86 494.946 1182.31 500.834 1178.4 503.738 C 1178.2 506.132 1178.58 507.883 1179.1 510.197 C 1177.83 512.373 1177.36 512.639 1175.16 513.922 C 1172.59 513.68 1172.6 513.467 1170.73 511.64 C 1170.7 512.033 1170.68 512.426 1170.64 512.818 C 1169.69 523.387 1162.96 545.922 1155.44 552.66 C 1153.95 553.998 1153.13 554.423 1152.67 556.357 L 1154.99 555.754 L 1155.23 553.86 C 1155.35 557.533 1154.66 567.157 1152.31 569.788 L 1149.49 568.796 C 1145.02 575.225 1145.33 587.497 1143.65 595.08 C 1143.57 595.442 1143.38 595.772 1143.24 596.117 L 1144.89 598.066 C 1145.08 600.24 1145.02 601.919 1144.62 604.057 C 1142.27 616.674 1143.62 639.041 1139.49 649.351 C 1135.32 659.772 1140.64 676.935 1140.94 688.298 C 1141.07 693.302 1140.24 698.607 1139.5 703.554 L 1140.45 702.493 L 1139.61 705.238 L 1141.35 704.245 C 1141.37 705.112 1141.37 705.98 1141.32 706.846 C 1140.55 721.565 1150.17 737.45 1148.14 751.792 C 1145.85 752.577 1146.85 752.723 1145.09 751.899 C 1144.93 755.057 1146.3 758.541 1147.85 761.25 C 1151.16 767.006 1151.2 778.178 1151.54 784.805 L 1154.33 782.116 C 1155.11 783.801 1154.97 784.09 1154.97 785.88 C 1155 806.007 1183.38 831.509 1188.86 849.716 C 1166.86 825.265 1150.47 791.297 1139.63 760.608 z"/>
<path transform="translate(0,0)" fill="rgb(200,196,201)" d="M 1139.63 760.608 C 1129.33 744.471 1122.17 684.102 1121.69 663.53 C 1119.91 607.902 1133.41 552.849 1160.7 504.348 C 1165.77 495.265 1171.67 483.686 1179.09 476.405 C 1181.05 474.484 1181.39 474.542 1183.99 474.563 C 1187.4 476.261 1189.68 478.032 1192.32 480.782 C 1156.63 507.87 1137.85 576.054 1131.94 619.04 C 1126.91 653.25 1126.97 688.017 1132.14 722.207 C 1133.48 731.341 1139.79 754.096 1139.63 760.608 z"/>
<path transform="translate(0,0)" fill="rgb(170,207,243)" d="M 1209.92 587.364 C 1233.48 584.914 1258.38 595.975 1277.36 609.26 C 1292.17 619.629 1304.78 633.228 1315.13 647.983 C 1348.55 695.618 1339.44 727.745 1348.91 780.263 C 1359.42 759.54 1370.48 725.828 1394.55 717.454 C 1399.65 715.676 1405.54 714.802 1410.51 717.384 C 1414.57 719.491 1418.5 724.325 1419.39 728.862 C 1423.07 747.598 1394.09 766.558 1383.57 779.717 C 1397.87 774.697 1415.86 770.445 1431.13 771.138 C 1442.36 771.647 1448.44 775.044 1455.7 783.141 C 1456.06 784.584 1456.38 786.035 1456.67 787.493 C 1457.46 791.534 1456.89 794.651 1454.49 798.023 C 1447.77 807.488 1434.68 809.52 1423.94 811.053 C 1413.3 812.777 1401.86 813.609 1391.64 817.117 C 1357.64 828.782 1351.06 864.201 1336.46 892.278 C 1333.75 897.475 1329.78 900.82 1324.1 902.471 C 1317.96 904.273 1311.35 903.544 1305.75 900.446 C 1301.55 898.127 1296.39 893.258 1295.37 888.366 C 1293.67 880.266 1303.28 868.412 1307.32 861.393 C 1320.95 837.717 1326.42 810.12 1319.02 783.407 C 1311.65 756.774 1292.7 753.976 1271.4 741.974 C 1235.75 721.883 1206.02 691.652 1194.94 651.453 C 1190.94 636.93 1185.11 611.966 1193.39 598.326 C 1197.31 591.877 1202.89 589.27 1209.92 587.364 z"/>
<path transform="translate(0,0)" fill="rgb(124,172,222)" d="M 1271.15 675.521 C 1272.9 675.772 1274.32 676.07 1275.92 676.873 C 1284.99 681.423 1311.71 715.669 1318.26 725.121 C 1320.16 727.866 1321.42 731.074 1322.57 734.192 C 1319.85 734.126 1317.36 733.379 1315.15 731.769 C 1306.09 725.186 1279.15 692.559 1273.39 682.76 C 1272.05 680.48 1271.52 678.109 1271.15 675.521 z"/>
<path transform="translate(0,0)" fill="rgb(170,207,243)" d="M 540.093 737.322 C 540.419 720.62 542.72 646.101 538.262 635.756 C 536.567 631.821 531.406 629.068 527.407 628.225 C 519.785 626.618 509.899 627.839 502.01 627.82 C 475.056 627.753 416.042 631.097 392.954 621.944 C 379.767 616.716 371.168 607.135 365.813 594.173 C 363.923 589.598 363.234 585.458 362.803 580.537 C 361.162 561.78 362.382 542.177 362.316 523.329 C 362.239 501.645 360.799 478.998 362.789 457.416 C 363.176 453.213 364.003 449.397 365.618 445.482 C 373.323 426.798 380.216 418.617 398.763 410.543 C 403.142 408.637 407.743 406.303 412.517 405.69 C 423.726 404.25 435.899 405.2 447.209 405.188 C 465.265 405.096 483.321 405.106 501.376 405.218 C 511.007 405.235 522.743 406.402 531.707 402.432 C 536.268 400.413 539.304 396.816 540.629 392.027 C 542.478 385.346 540.723 375.681 540.641 368.695 C 540.311 340.757 536.563 289.015 547.131 264.409 C 553.129 250.443 565.413 240.112 579.683 234.907 C 592.542 230.217 693.956 230.777 712.438 232.784 C 719.509 233.552 727.207 235.149 733.558 238.399 C 744.486 243.99 754.578 254.108 758.548 265.853 C 761.249 267.383 762.478 269.228 764.935 270.779 C 768.199 272.841 771.889 277.325 772.844 281.15 C 775.065 290.052 773.095 308.328 771.789 317.612 L 774.039 317.188 C 775.374 321.001 771.919 323.095 771.462 326.546 C 771.371 327.23 773.172 329.451 773.336 330.327 C 774.116 334.499 772.062 342.378 771.942 346.995 C 771.562 361.596 775.593 385.398 770.611 399.012 C 773.016 401.654 774.814 401.922 778.304 402.092 C 781.7 402.258 790.453 401.608 792.631 403.804 L 848.65 404.369 C 864.619 404.481 881.904 403.705 897.587 407.016 C 906.169 408.827 915.304 412.222 921.883 418.197 C 921.978 418.284 922.06 418.383 922.149 418.476 C 926.126 421.626 929.627 424.766 932.366 429.085 C 935.282 433.221 937.46 437.116 939.574 441.696 C 941.393 443.232 943.318 444.734 945.075 446.333 C 950.513 451.28 955.429 460.779 955.822 468.162 C 955.849 468.682 955.807 469.204 955.815 469.725 C 955.955 478.949 956.739 488.151 956.519 497.389 C 956.394 502.605 955.069 508.527 955.527 513.614 C 955.865 517.366 957.205 520.218 957.075 524.267 C 956.686 536.385 955.073 548.523 954.202 560.617 C 953.585 569.177 953.784 577.52 952.509 586.086 C 951.721 591.38 951.83 596.198 949.123 601.002 C 948.865 601.46 948.618 601.924 948.356 602.38 C 941.957 613.5 930.732 622.072 918.87 626.691 C 913.185 628.905 907.278 630.468 901.958 633.503 L 898.671 632.492 C 894.927 635.784 892.766 636.751 887.751 636.33 C 885.355 636.128 885.602 635.931 883.927 634.482 L 883.661 633.753 L 882.987 634.367 L 883.307 632.62 C 874.472 632.244 854.538 629.69 846.734 631.646 C 845.668 631.913 844.447 633.177 843.596 633.787 C 836.365 638.97 821.747 633.632 813.261 635.019 C 809.977 635.556 806.142 637.615 803.079 638.921 C 790.423 644.317 780.764 650.583 777.405 664.717 C 775.827 671.359 773.406 691.946 774.545 698.072 C 778.362 701.919 783.506 699.418 787.711 702.255 C 786.773 704.366 786.207 704.166 784.225 705.17 C 779.305 705.382 774.417 705.561 769.49 705.492 L 769.476 706.992 C 769.342 733.125 778.092 759.942 756.427 781.011 C 745.837 791.31 726.266 803.285 710.955 801.902 C 710.03 801.818 709.62 801.502 708.896 801.083 C 684.024 805.095 622.258 804.709 597.148 800.201 C 588.854 798.712 581.48 796.293 573.98 792.47 C 563.599 788.423 554.49 777.792 549.225 768.264 C 542.695 762.345 540.948 745.622 540.093 737.322 z"/>
<path transform="translate(0,0)" fill="rgb(124,172,222)" d="M 573.98 792.47 L 575.065 791.763 C 601.545 796.897 689.496 797.764 715.55 790.52 C 754.155 779.786 753.191 736.947 752.626 704.862 C 752.377 690.71 752.014 676.547 751.974 662.394 C 751.945 652.091 751.402 638.64 756.922 629.559 C 760.308 623.99 765.673 620.95 771.886 619.44 C 782.994 616.739 795.186 618.176 806.494 618.579 C 827.541 619.331 876.897 622.147 895.643 617.409 C 909.292 613.96 920.204 605.091 925.78 592.027 C 933.945 572.898 933.3 487.655 932.063 463.914 C 931.612 455.244 927.923 436.406 932.366 429.085 C 935.282 433.221 937.46 437.116 939.574 441.696 C 941.393 443.232 943.318 444.734 945.075 446.333 C 950.513 451.28 955.429 460.779 955.822 468.162 C 955.849 468.682 955.807 469.204 955.815 469.725 C 955.955 478.949 956.739 488.151 956.519 497.389 C 956.394 502.605 955.069 508.527 955.527 513.614 C 955.865 517.366 957.205 520.218 957.075 524.267 C 956.686 536.385 955.073 548.523 954.202 560.617 C 953.585 569.177 953.784 577.52 952.509 586.086 C 951.721 591.38 951.83 596.198 949.123 601.002 C 948.865 601.46 948.618 601.924 948.356 602.38 C 941.957 613.5 930.732 622.072 918.87 626.691 C 913.185 628.905 907.278 630.468 901.958 633.503 L 898.671 632.492 C 894.927 635.784 892.766 636.751 887.751 636.33 C 885.355 636.128 885.602 635.931 883.927 634.482 L 883.661 633.753 L 882.987 634.367 L 883.307 632.62 C 874.472 632.244 854.538 629.69 846.734 631.646 C 845.668 631.913 844.447 633.177 843.596 633.787 C 836.365 638.97 821.747 633.632 813.261 635.019 C 809.977 635.556 806.142 637.615 803.079 638.921 C 790.423 644.317 780.764 650.583 777.405 664.717 C 775.827 671.359 773.406 691.946 774.545 698.072 C 778.362 701.919 783.506 699.418 787.711 702.255 C 786.773 704.366 786.207 704.166 784.225 705.17 C 779.305 705.382 774.417 705.561 769.49 705.492 L 769.476 706.992 C 769.342 733.125 778.092 759.942 756.427 781.011 C 745.837 791.31 726.266 803.285 710.955 801.902 C 710.03 801.818 709.62 801.502 708.896 801.083 C 684.024 805.095 622.258 804.709 597.148 800.201 C 588.854 798.712 581.48 796.293 573.98 792.47 z"/>
<path transform="translate(0,0)" fill="rgb(200,196,201)" d="M 939.574 441.696 C 941.393 443.232 943.318 444.734 945.075 446.333 C 950.513 451.28 955.429 460.779 955.822 468.162 C 955.849 468.682 955.807 469.204 955.815 469.725 C 955.955 478.949 956.739 488.151 956.519 497.389 C 956.394 502.605 955.069 508.527 955.527 513.614 C 955.865 517.366 957.205 520.218 957.075 524.267 C 956.686 536.385 955.073 548.523 954.202 560.617 C 953.585 569.177 953.784 577.52 952.509 586.086 C 951.721 591.38 951.83 596.198 949.123 601.002 C 948.865 601.46 948.618 601.924 948.356 602.38 C 941.957 613.5 930.732 622.072 918.87 626.691 C 913.185 628.905 907.278 630.468 901.958 633.503 L 898.671 632.492 C 894.927 635.784 892.766 636.751 887.751 636.33 C 885.355 636.128 885.602 635.931 883.927 634.482 L 883.661 633.753 L 882.987 634.367 L 883.307 632.62 C 874.472 632.244 854.538 629.69 846.734 631.646 C 845.668 631.913 844.447 633.177 843.596 633.787 C 836.365 638.97 821.747 633.632 813.261 635.019 C 809.977 635.556 806.142 637.615 803.079 638.921 C 790.423 644.317 780.764 650.583 777.405 664.717 C 775.827 671.359 773.406 691.946 774.545 698.072 C 778.362 701.919 783.506 699.418 787.711 702.255 C 786.773 704.366 786.207 704.166 784.225 705.17 C 779.305 705.382 774.417 705.561 769.49 705.492 L 769.476 706.992 C 769.342 733.125 778.092 759.942 756.427 781.011 C 745.837 791.31 726.266 803.285 710.955 801.902 C 710.03 801.818 709.62 801.502 708.896 801.083 C 723.63 796.923 737.211 792.207 748.171 780.921 C 767.553 760.961 764.844 730.618 764.707 704.939 C 764.554 704.44 764.357 703.953 764.249 703.443 C 762.724 696.235 763.118 649.53 764.292 641.822 C 764.914 637.734 765.98 634.517 768.407 631.176 C 772.719 628.614 777.239 627.669 782.219 627.26 C 791.815 626.473 801.943 627.658 811.584 627.84 C 826.776 628.126 842.233 627.6 857.367 628.876 C 871.869 628.959 887.274 629.95 901.465 626.454 C 915.176 623.076 928.244 614.708 935.454 602.38 C 939.233 595.917 941.249 588.904 942.365 581.555 C 945.008 564.152 943.923 544.882 944.068 527.256 C 944.234 507.09 945.259 486.26 943.775 466.169 C 943.154 457.76 941.641 449.86 939.574 441.696 z"/>
<path transform="translate(0,0)" fill="rgb(143,181,228)" d="M 922.149 418.476 C 926.126 421.626 929.627 424.766 932.366 429.085 C 927.923 436.406 931.612 455.244 932.063 463.914 C 933.3 487.655 933.945 572.898 925.78 592.027 C 920.204 605.091 909.292 613.96 895.643 617.409 C 876.897 622.147 827.541 619.331 806.494 618.579 C 795.186 618.176 782.994 616.739 771.886 619.44 C 765.673 620.95 760.308 623.99 756.922 629.559 C 751.402 638.64 751.945 652.091 751.974 662.394 C 752.014 676.547 752.377 690.71 752.626 704.862 C 753.191 736.947 754.155 779.786 715.55 790.52 C 689.496 797.764 601.545 796.897 575.065 791.763 L 573.98 792.47 C 563.599 788.423 554.49 777.792 549.225 768.264 C 552.896 770.965 555.737 774.525 558.743 777.923 C 590.724 788.68 627.642 786.633 660.993 785.827 C 672.112 785.559 683.59 785.837 694.639 784.753 C 713.016 782.951 728.681 774.392 740.412 760.293 C 736.085 756.84 743.329 752.555 743.679 748.489 C 743.82 746.859 742.461 743.335 742.05 741.599 L 744.524 741.63 C 744.326 741.187 743.813 740.106 743.68 739.577 C 742.79 736.015 744.08 730.445 744.262 726.721 C 745.364 704.155 742.75 681.674 743.638 659.055 C 743.795 655.062 742.938 651.031 743.106 647.029 C 743.192 644.964 743.735 643.276 744.69 641.448 C 745.005 640.845 745.347 640.257 745.675 639.662 C 745.067 638.24 745.323 638.762 744.641 637.454 L 744.174 636.571 C 746.198 631.243 747.974 624.395 752.155 620.369 C 757.591 615.136 765.503 612.666 772.779 611.414 C 786.268 609.094 800.983 610.092 814.636 610.266 C 833.436 610.596 852.239 610.717 871.042 610.63 C 885.209 610.514 900.656 609.247 910.998 598.321 C 916.075 592.957 919.12 586.465 920.73 579.293 C 924.905 560.699 923.085 539.878 923.491 520.912 C 923.614 515.174 924.543 509.51 924.722 503.79 C 925.09 491.999 924.564 479.35 924.081 467.529 C 923.718 458.631 920.871 436.385 922.139 429.173 C 922.528 426.956 924.51 426.489 926.224 425.44 C 925.751 423.185 922.913 421.673 922.149 418.476 z"/>
<path transform="translate(0,0)" fill="rgb(200,196,201)" d="M 758.548 265.853 C 761.249 267.383 762.478 269.228 764.935 270.779 C 768.199 272.841 771.889 277.325 772.844 281.15 C 775.065 290.052 773.095 308.328 771.789 317.612 L 774.039 317.188 C 775.374 321.001 771.919 323.095 771.462 326.546 C 771.371 327.23 773.172 329.451 773.336 330.327 C 774.116 334.499 772.062 342.378 771.942 346.995 C 771.562 361.596 775.593 385.398 770.611 399.012 C 773.016 401.654 774.814 401.922 778.304 402.092 C 781.7 402.258 790.453 401.608 792.631 403.804 C 785.532 405.075 774.685 404.663 768.518 400.717 C 763.87 397.742 762.562 391.394 761.812 386.312 C 760.548 377.74 761.207 368.658 761.296 360.006 C 761.578 332.326 764.995 291.425 758.548 265.853 z"/>
<path transform="translate(0,0)" fill="rgb(250,168,151)" d="M 1264.32 1596.42 C 1250.44 1591.51 1225.96 1567.04 1215.79 1555.95 C 1165.64 1501.25 1141.58 1426.81 1145.2 1353.15 C 1148.43 1287.43 1178.95 1221.62 1227.77 1177.51 C 1274.78 1135.02 1333.87 1116.47 1396.74 1119.84 C 1436.48 1121.97 1498.29 1140.76 1525.53 1171.2 C 1540.36 1183.75 1551.76 1198.36 1563.33 1213.8 C 1578.06 1225.45 1596.31 1267.88 1599.24 1286.16 C 1599.4 1287.15 1599.43 1288.15 1599.53 1289.14 C 1600.09 1294.66 1604.22 1298.75 1605.22 1304.07 C 1607.45 1315.98 1607.05 1329.32 1610.2 1341.02 C 1612.2 1340.81 1611.22 1341.13 1613.09 1339.89 L 1614.27 1339.87 C 1614.58 1345.68 1610.4 1351.41 1612.12 1356.95 C 1615.68 1368.44 1614.97 1381.86 1615.2 1393.78 L 1614.37 1394.66 C 1613.76 1392.85 1614.01 1393.76 1613.63 1391.92 L 1615.28 1392.74 L 1612.66 1393.26 C 1612.97 1394.62 1613.33 1395.71 1613.82 1397 C 1615.4 1401.16 1612.86 1410.55 1612.11 1415.04 L 1607.15 1445.85 C 1606.67 1448.97 1604.49 1452.6 1603.52 1455.73 C 1598.38 1472.37 1593.57 1486.85 1585.14 1502.22 C 1549.93 1566.49 1502.18 1603.23 1432.34 1623.41 C 1406.29 1630.94 1377.87 1633.6 1350.91 1630.34 C 1347.23 1629.9 1340.8 1629.45 1337.74 1627.49 C 1336.56 1626.73 1336.58 1626.65 1335.81 1625.72 C 1310.25 1619.61 1286.62 1610.36 1264.32 1596.42 z"/>
<path transform="translate(0,0)" fill="rgb(214,128,104)" d="M 1525.53 1171.2 C 1540.36 1183.75 1551.76 1198.36 1563.33 1213.8 C 1578.06 1225.45 1596.31 1267.88 1599.24 1286.16 C 1599.4 1287.15 1599.43 1288.15 1599.53 1289.14 C 1600.09 1294.66 1604.22 1298.75 1605.22 1304.07 C 1607.45 1315.98 1607.05 1329.32 1610.2 1341.02 C 1612.2 1340.81 1611.22 1341.13 1613.09 1339.89 L 1614.27 1339.87 C 1614.58 1345.68 1610.4 1351.41 1612.12 1356.95 C 1615.68 1368.44 1614.97 1381.86 1615.2 1393.78 L 1614.37 1394.66 C 1613.76 1392.85 1614.01 1393.76 1613.63 1391.92 L 1615.28 1392.74 L 1612.66 1393.26 C 1612.97 1394.62 1613.33 1395.71 1613.82 1397 C 1615.4 1401.16 1612.86 1410.55 1612.11 1415.04 L 1607.15 1445.85 C 1606.67 1448.97 1604.49 1452.6 1603.52 1455.73 C 1598.38 1472.37 1593.57 1486.85 1585.14 1502.22 C 1549.93 1566.49 1502.18 1603.23 1432.34 1623.41 C 1406.29 1630.94 1377.87 1633.6 1350.91 1630.34 C 1347.23 1629.9 1340.8 1629.45 1337.74 1627.49 C 1336.56 1626.73 1336.58 1626.65 1335.81 1625.72 C 1310.25 1619.61 1286.62 1610.36 1264.32 1596.42 L 1265.88 1595.77 C 1270.95 1597.65 1275.21 1602.14 1279.98 1603.6 C 1282.24 1604.29 1284.85 1603.87 1286.96 1602.96 C 1283.9 1602.17 1281.44 1601.68 1279.02 1599.49 L 1280.27 1599.06 C 1295.83 1605.94 1312.04 1610.69 1328.66 1614.17 C 1362.19 1621.19 1379.03 1620.63 1412.54 1613.32 C 1425.57 1610.47 1438.88 1607.07 1450.97 1601.34 C 1458.77 1597.63 1467.77 1593.56 1474.92 1588.82 C 1481.76 1584.29 1487.08 1578.52 1494.81 1575.53 C 1495.18 1575.45 1495.56 1575.4 1495.93 1575.29 C 1503.07 1573.17 1534.15 1540.12 1540.25 1532.88 C 1547.91 1523.91 1554.92 1514.4 1561.21 1504.43 C 1597.36 1446.29 1607.59 1368.38 1592.44 1301.98 C 1587.47 1280.19 1578.14 1256.57 1568.24 1236.58 C 1564.62 1229.27 1539.55 1190.93 1539.44 1190.23 C 1539.4 1189.95 1539.43 1189.66 1539.42 1189.37 L 1540.91 1189.68 C 1536.91 1182.83 1529.69 1178.11 1525.53 1171.2 z"/>
<path transform="translate(0,0)" fill="rgb(200,196,201)" d="M 1563.33 1213.8 C 1578.06 1225.45 1596.31 1267.88 1599.24 1286.16 C 1599.4 1287.15 1599.43 1288.15 1599.53 1289.14 C 1600.09 1294.66 1604.22 1298.75 1605.22 1304.07 C 1607.45 1315.98 1607.05 1329.32 1610.2 1341.02 C 1612.2 1340.81 1611.22 1341.13 1613.09 1339.89 L 1614.27 1339.87 C 1614.58 1345.68 1610.4 1351.41 1612.12 1356.95 C 1615.68 1368.44 1614.97 1381.86 1615.2 1393.78 L 1614.37 1394.66 C 1613.76 1392.85 1614.01 1393.76 1613.63 1391.92 L 1615.28 1392.74 L 1612.66 1393.26 C 1612.97 1394.62 1613.33 1395.71 1613.82 1397 C 1615.4 1401.16 1612.86 1410.55 1612.11 1415.04 L 1607.15 1445.85 C 1606.67 1448.97 1604.49 1452.6 1603.52 1455.73 C 1598.38 1472.37 1593.57 1486.85 1585.14 1502.22 C 1549.93 1566.49 1502.18 1603.23 1432.34 1623.41 C 1406.29 1630.94 1377.87 1633.6 1350.91 1630.34 C 1347.23 1629.9 1340.8 1629.45 1337.74 1627.49 C 1336.56 1626.73 1336.58 1626.65 1335.81 1625.72 C 1385.88 1633.75 1434.89 1627.49 1478.58 1600.56 C 1537.66 1564.13 1585.1 1502.94 1600.8 1435.18 C 1614.34 1376.77 1610.13 1311 1586.37 1255.82 C 1579.99 1240.99 1571.83 1227.46 1563.33 1213.8 z"/>
<path transform="translate(0,0)" fill="rgb(245,158,127)" d="M 1494.81 1575.53 L 1493.91 1574.11 C 1494.36 1573.69 1494.78 1573.23 1495.27 1572.85 C 1497.73 1570.88 1498.39 1570.35 1499.87 1567.55 C 1498.44 1567.49 1497.41 1567.29 1496.04 1566.93 C 1498.48 1563.19 1504.96 1560.24 1508.41 1556.7 C 1523.91 1540.79 1538.27 1524.95 1552.08 1507.58 C 1554.67 1504.33 1557.97 1501.62 1560.46 1498.31 C 1563.76 1493.91 1581.86 1453.44 1581.55 1450.69 L 1580.97 1450.31 C 1579.43 1452.53 1578.47 1454.17 1576.18 1455.69 L 1575.53 1454.01 C 1580.27 1448.97 1581.84 1440.9 1583.6 1434.42 C 1584.81 1429.95 1586.86 1425.59 1587.92 1421.16 C 1589.12 1416.14 1590.78 1391.11 1590.91 1385.35 C 1591.15 1374.6 1589.57 1356.34 1592.2 1346.49 C 1592.7 1344.63 1593.14 1342.81 1593.55 1340.93 L 1592.02 1339.37 C 1591.82 1336.89 1593.93 1336.62 1594.22 1334.31 L 1591.53 1335.46 L 1590.62 1334.56 C 1590.65 1331.52 1590.83 1328.41 1590.04 1325.44 C 1589.89 1324.88 1589.72 1324.32 1589.56 1323.77 L 1591.77 1322.62 C 1584.27 1314.61 1585.11 1293.27 1582.59 1282.35 C 1580.74 1274.31 1574.33 1267.31 1572.81 1258.87 C 1570.16 1244.17 1553.62 1215.03 1543.2 1203.58 C 1540.55 1200.67 1536.97 1198.62 1534.35 1195.68 C 1532.4 1193.49 1531.47 1190.7 1529.4 1188.46 C 1526.92 1185.78 1524.86 1183.46 1522.98 1180.26 C 1528.11 1181.57 1529.98 1187.4 1535.71 1187.54 C 1534.59 1186.66 1533.73 1186.46 1533.47 1185 C 1536.63 1185.92 1537.23 1187 1539.42 1189.37 C 1539.43 1189.66 1539.4 1189.95 1539.44 1190.23 C 1539.55 1190.93 1564.62 1229.27 1568.24 1236.58 C 1578.14 1256.57 1587.47 1280.19 1592.44 1301.98 C 1607.59 1368.38 1597.36 1446.29 1561.21 1504.43 C 1554.92 1514.4 1547.91 1523.91 1540.25 1532.88 C 1534.15 1540.12 1503.07 1573.17 1495.93 1575.29 C 1495.56 1575.4 1495.18 1575.45 1494.81 1575.53 z"/>
<path transform="translate(0,0)" fill="rgb(245,245,252)" d="M 1367.8 1205.21 C 1373.84 1204.54 1380.07 1204.42 1385.99 1205.95 C 1398.29 1209.12 1408.14 1217.03 1414.34 1228.07 C 1418.65 1235.76 1419.39 1243.96 1419.48 1252.59 C 1419.61 1265.06 1417.69 1277.84 1416.5 1290.25 L 1410.54 1351.72 L 1405.59 1402.31 C 1404.65 1411.82 1404.51 1423.04 1401.63 1432.13 C 1398.68 1441.42 1391.54 1446.32 1383.35 1450.63 C 1375.19 1451.68 1368.34 1451.49 1361.12 1447.01 C 1354.86 1443.13 1351.64 1437.72 1349.93 1430.7 C 1347.21 1419.47 1346.58 1407.53 1345.42 1396.05 L 1339.99 1341.5 L 1334.01 1283.05 C 1332.65 1269.77 1330.4 1255.87 1331.42 1242.52 C 1331.89 1236.47 1335.06 1230.09 1338.28 1225.03 C 1345.18 1214.18 1355.49 1208.06 1367.8 1205.21 z"/>
<path transform="translate(0,0)" fill="rgb(245,245,252)" d="M 1369.51 1477.93 C 1389.64 1474.82 1408.51 1488.52 1411.78 1508.63 C 1415.04 1528.73 1401.48 1547.71 1381.4 1551.13 C 1361.11 1554.59 1341.88 1540.85 1338.57 1520.52 C 1335.27 1500.2 1349.16 1481.07 1369.51 1477.93 z"/>
</svg>