<?xml version="1.0" encoding="UTF-8"?>
<!DOCTYPE svg PUBLIC "-//W3C//DTD SVG 1.1//EN" "http://www.w3.org/Graphics/SVG/1.1/DTD/svg11.dtd">
<!-- Creator: CorelDRAW -->
<svg xmlns="http://www.w3.org/2000/svg" xml:space="preserve" width="1000px" height="1000px" version="1.1" style="shape-rendering:geometricPrecision; text-rendering:geometricPrecision; image-rendering:optimizeQuality; fill-rule:evenodd; clip-rule:evenodd"
viewBox="0 0 1000 1000"
 xmlns:xlink="http://www.w3.org/1999/xlink"
 xmlns:xodm="http://www.corel.com/coreldraw/odm/2003">
 <defs>
  <style type="text/css">
   <![CDATA[
    .str1 {stroke:black;stroke-width:11.81;stroke-miterlimit:22.9256}
    .str0 {stroke:black;stroke-width:17.72;stroke-miterlimit:22.9256}
    .str2 {stroke:black;stroke-width:17.72;stroke-miterlimit:22.9256}
    .fil0 {fill:none}
    .fil1 {fill:#006FFF}
    .fil2 {fill:#006FFF}
   ]]>
  </style>
 </defs>
 <g id="Camada_x0020_1">
  <metadata id="CorelCorpID_0Corel-Layer"/>
  <g id="_2378291530576">
   <g>
    <polygon class="fil0 str0" points="254.85,418.28 581.72,418.28 581.72,745.15 254.85,745.15 "/>
    <g>
     <polygon class="fil1 str1" points="217.56,381 292.13,381 292.13,455.56 217.56,455.56 "/>
     <polygon class="fil1 str1" points="544.44,381 619,381 619,455.56 544.44,455.56 "/>
    </g>
    <g>
     <polygon class="fil2 str1" points="217.56,707.87 292.13,707.87 292.13,782.44 217.56,782.44 "/>
     <polygon class="fil2 str1" points="544.44,707.87 619,707.87 619,782.44 544.44,782.44 "/>
    </g>
   </g>
   <g>
    <polygon class="fil2 str2" points="418.28,254.85 745.15,254.85 745.15,581.72 418.28,581.72 "/>
    <g>
     <polygon class="fil2 str1" points="381,217.56 455.56,217.56 455.56,292.13 381,292.13 "/>
     <polygon class="fil2 str1" points="707.87,217.56 782.44,217.56 782.44,292.13 707.87,292.13 "/>
    </g>
    <g>
     <polygon class="fil2 str1" points="381,544.44 455.56,544.44 455.56,619 381,619 "/>
     <polygon class="fil2 str1" points="707.87,544.44 782.44,544.44 782.44,619 707.87,619 "/>
    </g>
   </g>
  </g>
 </g>
</svg>
