<?xml version="1.0" encoding="UTF-8"?>
<!DOCTYPE svg PUBLIC "-//W3C//DTD SVG 1.1//EN" "http://www.w3.org/Graphics/SVG/1.1/DTD/svg11.dtd">
<!-- Creator: CorelDRAW -->
<svg xmlns="http://www.w3.org/2000/svg" xml:space="preserve" width="1000px" height="1000px" version="1.1" style="shape-rendering:geometricPrecision; text-rendering:geometricPrecision; image-rendering:optimizeQuality; fill-rule:evenodd; clip-rule:evenodd"
viewBox="0 0 1000 1000"
 xmlns:xlink="http://www.w3.org/1999/xlink"
 xmlns:xodm="http://www.corel.com/coreldraw/odm/2003">
 <defs>
  <style type="text/css">
   <![CDATA[
    .fil3 {fill:#3F5AA9}
    .fil0 {fill:#45B748}
    .fil4 {fill:#4CB1E4}
    .fil2 {fill:#F8A61D}
    .fil1 {fill:#FCCF0C}
   ]]>
  </style>
 </defs>
 <g id="Camada_x0020_1">
  <metadata id="CorelCorpID_0Corel-Layer"/>
  <g id="_1876763777136">
   <path class="fil0" d="M283.19 175.19l82.27 0 -190.27 190.27 0 -82.27c0,-59.4 48.6,-108 108,-108zm351.35 0l82.27 0c59.4,0 107.99,48.6 107.99,108l0 82.27 -190.26 -190.27zm190.26 459.35l0 82.27c0,59.4 -48.59,107.99 -107.99,107.99l-82.27 0 190.26 -190.26zm-459.34 190.26l-82.27 0c-59.4,0 -108,-48.59 -108,-107.99l0 -82.27 190.27 190.26z"/>
   <path class="fil1" d="M429.68 133.17l-296.51 296.51c-19.33,19.33 -29,44.83 -29,70.32 0,25.49 9.67,50.98 29,70.32l296.51 296.51c19.34,19.33 44.83,28.99 70.32,28.99 25.49,0 50.98,-9.66 70.32,-28.99l296.51 -296.51c19.33,-19.34 29,-44.83 29,-70.32 0,-25.49 -9.67,-50.99 -29,-70.32l-296.51 -296.51c-19.34,-19.33 -44.83,-29 -70.32,-29 -25.49,0 -50.98,9.67 -70.32,29z"/>
   <g>
    <circle class="fil2" cx="479.2" cy="520.19" r="212.71"/>
    <circle class="fil3" cx="500.8" cy="479.81" r="212.71"/>
    <path class="fil4" d="M691.5 385.5c6.84,13.81 12.22,28.46 15.95,43.76l-397.35 144.85c-6.84,-13.8 -12.22,-28.45 -15.95,-43.76l397.35 -144.85z"/>
   </g>
  </g>
 </g>
</svg>
