<?xml version="1.0" encoding="UTF-8"?>
<svg width="181px" height="54px" viewBox="0 0 181 54" version="1.1" xmlns="http://www.w3.org/2000/svg" xmlns:xlink="http://www.w3.org/1999/xlink">
    <!-- Generator: Sketch 55.2 (78181) - https://sketchapp.com -->
    <title>gercon-logo</title>
    <desc>Created with Sketch.</desc>
    <g id="Page-1" stroke="none" stroke-width="1" fill="none" fill-rule="evenodd">
        <g id="gercon-logo" fill-rule="nonzero">
            <g id="Shape-+-Shape-+-Shape" fill="#BDCCD4">
                <path d="M14.906,50.333 C12.935,49.977 7.082,50.026 6.207,48.647 C5.652,47.766 5.653,43.446 5.637,40.353 C5.637,40.353 5.518,23.564 4.858,22.619 C4.071,21.498 0.998,20.547 0.998,21.765 C0.998,23.168 0.11,43.865 0.11,48.817 L0.11,48.838 C0.11,50.653 0.926,51.75 1.505,52.457 C2.138,53.228 3.792,53.381 5.73,53.381 C5.921,53.381 16.884,53.455 16.898,53.455 C17.247,53.455 17.345,52.934 17.371,52.809 C17.432,52.427 17.322,50.771 14.906,50.333 L14.906,50.333 Z" id="Shape"></path>
                <path d="M50.3690092,3.627 C50.371,2.753 50.047,1.947 49.455,1.353 C48.738,0.631 47.674,0.249 46.379,0.249 C45.441,0.249 25.861,0.712 21.602,0.712 C20.172,0.712 21.342,3.935 22.194,3.935 C26.467,3.935 24.854,3.985 26.663,3.935 C29.225,3.867 40.969,3.948 42.416,3.915 C44.606,3.864 46.102,4.659 46.102,6.334 C46.102,8.653 46.164,10.631 46.164,10.92 C46.164,11.247 46.371,11.479 46.904,11.597 C47.584,11.748 49.646,12.046 50.054,11.72 C50.184,11.11 50.357,5.45 50.3690092,3.627 L50.3690092,3.627 Z" id="Shape"></path>
                <path d="M50.822,33.935 C50.818,33.785 50.732,33.535 50.167,33.535 C49.706,33.535 47.192,33.694 46.847,34.049 C46.659,34.24 46.564,34.477 46.571,34.731 C46.601,36.187 46.614,39.274 46.624,42.236 C46.634,44.786 46.64,46.383 46.659,47.28 C46.708,49.411 46.427,50.057 44.788,50.444 C43.977,50.637 39.642,50.501 38.278,51.251 C37.202,51.841 36.911,52.495 36.911,53.025 C36.911,53.635 37.145,53.754 37.857,53.7530062 C39.955,53.745 45.264,53.745 47.287,53.7 C48.628,53.669 49.593,53.062 50.134,51.897 C50.837,50.369 50.681,45.337 50.734,42.686 C50.795,39.364 50.866,35.87 50.822,33.935 L50.822,33.935 Z" id="Shape"></path>
            </g>
            <g id="Group" transform="translate(7.000000, 7.000000)" fill="#1A71A6">
                <path d="M18.866,22.358 C19.185,22.166 19.287,21.751 19.095,21.432 C18.897,21.114 18.486,21.014 18.167,21.205 C16.438,22.254 14.033,22.863 11.875,22.783 C10.056,22.719 7.564,22.472 6.029,20.103 C3.291,15.87 2.415,11.373 1.955,7.929 L1.849,7.14 C1.538,4.859 1.336,3.353 1.827,2.816 C2.343,2.252 3.327,2.212 5.991,2.332 C6.361,2.353 6.68,2.062 6.698,1.691 C6.712,1.317 6.427,1.004 6.053,0.985 C2.707,0.832 1.721,0.93 0.831,1.904 C-0.085,2.909 0.123,4.476 0.512,7.322 L0.619,8.109 C1.096,11.693 2.015,16.38 4.896,20.836 C6.598,23.464 9.433,24.141 12.289,24.141 C14.689,24.141 17.105,23.427 18.866,22.358 L18.866,22.358 Z" id="Shape"></path>
                <path d="M43.517,11.741 C40.694,8.327 35.765,7.268 32.057,9.348 C30.265,10.353 24.745,14.452 28.858,26.433 C30.571,31.419 30.225,35.84 27.914,39.057 C26.095,41.582 23.247,42.469 19.886,42.469 L19.792,42.469 C16.247,42.469 13.155,41.105 12.097,38.399 C11.208,36.127 11.96,34.112 14.159,32.053 C23.38,23.42 25.527,11.06 25.965,7.471 L26.014,7.069 C26.315,4.646 26.495,3.186 25.602,2.181 C24.682,1.148 23.465,0.961 20.325,0.98 C19.953,0.98 19.652,1.283 19.655,1.654 C19.657,2.027 19.958,2.316 20.334,2.316 C22.869,2.302 24.024,2.41 24.595,3.051 C25.083,3.601 24.922,4.874 24.679,6.847 L24.626,7.193 C24.203,10.667 22.126,22.518 13.237,30.84 C10.616,33.292 9.741,35.988 10.844,38.802 C12.098,42.017 15.692,43.642 19.787,43.642 L19.889,43.642 C23.696,43.642 26.93,42.644 29.006,39.757 C31.583,36.181 31.992,31.583 30.137,26.179 C27.59,18.76 28.554,12.952 32.719,10.616 C35.868,8.851 40.066,9.727 42.479,12.645 C44.391,14.953 44.004,16.877 43.606,17.815 C43.267,18.607 42.688,19.249 42.019,19.627 C42.409,19.131 42.629,18.435 42.629,17.585 C42.629,16.546 41.691,15.343 40.227,15.343 C38.763,15.343 37.289,16.225 37.289,17.906 C37.289,18.437 37.369,18.84 37.492,19.174 C37.5,19.272 37.524,19.37 37.581,19.462 C38.373,20.755 39.603,21.434 40.975,21.331 C42.603,21.21 44.122,20.022 44.847,18.323 C45.729,16.246 45.246,13.829 43.517,11.741 L43.517,11.741 Z" id="Shape"></path>
                <path d="M7.795,2.368 C8.415,2.33 9.471,2.588 9.981,2.368 C10.491,2.149 10.383,0.947 9.981,0.91 C9.582,0.875 7.592,0.657 7.615,0.91 C7.689,1.792 7.176,2.402 7.795,2.368 L7.795,2.368 Z" id="Shape"></path>
                <path d="M16.353,2.336 C16.754,2.373 18.742,2.593 18.719,2.336 C18.641,1.454 19.155,0.843 18.538,0.878 C17.918,0.917 16.861,0.66 16.352,0.878 C15.844,1.099 15.95,2.299 16.353,2.336 L16.353,2.336 Z" id="Shape"></path>
                <path d="M13.497,28.763 C15.385,27.235 15.986,26.286 16.674,25.133 C17.482,23.77 17.221,24.111 15.819,24.887 C14.416,25.669 11.61,26.186 8.584,25.027 C7.362,24.558 7.362,24.322 8.003,25.365 C8.341,25.914 10.043,28.156 11.246,29.355 C12.033,30.144 12.689,29.415 13.497,28.763 L13.497,28.763 Z" id="Shape"></path>
            </g>
            <g id="Group" transform="translate(65.000000, 16.000000)" fill="#1A71A6">
                <path d="M15.078,2.371 C15.165,0.737 15.291,0.694 16.024,0.694 L16.41,0.694 L16.583,0.866 L16.583,20.818 C16.583,30.364 15.68,31.653 8.069,31.653 C3.295,31.653 1.273,31.395 1.273,30.364 L1.273,29.805 L1.445,29.675 C2.951,30.062 5.317,30.235 7.94,30.235 C14.777,30.235 15.078,29.159 15.078,20.903 L15.078,20.087 C13.917,21.937 12.711,22.452 8.069,22.452 C1.016,22.452 0.286,20.688 0.286,11.444 C0.286,2.199 1.06,0.436 8.326,0.436 C12.197,0.436 14.133,0.952 15.078,2.371 L15.078,2.371 Z M1.875,11.444 C1.875,20.258 2.608,21.033 8.413,21.033 C12.068,21.033 15.078,20.473 15.078,16.991 L15.078,5.811 C15.078,3.145 13.874,1.855 8.413,1.855 C2.652,1.855 1.875,2.629 1.875,11.444 L1.875,11.444 Z" id="Shape"></path>
                <path d="M37.051,10.068 L37.051,11.315 L36.749,11.573 L23.462,11.573 C23.462,19.227 23.635,21.118 30.472,21.118 C33.137,21.118 35.245,20.989 36.662,20.688 L36.878,20.818 L36.878,21.335 C36.878,22.194 35.072,22.452 30.299,22.452 C22.732,22.452 21.829,20.688 21.829,11.444 C21.829,1.167 23.203,0.436 29.782,0.436 C36.018,0.436 37.051,1.383 37.051,10.068 L37.051,10.068 Z M23.462,10.284 L35.502,10.284 C35.502,2.501 35.114,1.855 29.609,1.855 C23.936,1.855 23.462,2.543 23.462,10.284 L23.462,10.284 Z" id="Shape"></path>
                <path d="M51.196,1.941 C46.767,1.941 43.927,2.156 43.927,5.768 L43.927,22.194 L42.382,22.194 L42.382,0.866 L42.552,0.694 L42.982,0.694 C43.714,0.694 43.8,0.78 43.927,2.758 C45.091,0.865 46.423,0.522 51.024,0.522 L51.196,0.693 L51.196,1.941 L51.196,1.941 Z" id="Shape"></path>
                <path d="M70.117,3.016 L70.117,4.478 L69.728,4.822 C68.224,4.651 66.332,4.564 64.268,4.564 C59.497,4.564 59.021,4.994 59.021,11.229 C59.021,17.937 59.322,18.323 64.396,18.323 C66.719,18.323 68.568,18.194 69.857,17.979 L70.289,18.323 L70.289,19.485 C70.289,21.549 69.042,22.452 63.237,22.452 C54.42,22.452 53.56,20.946 53.56,11.444 C53.56,1.167 54.981,0.436 63.494,0.436 C68.654,0.436 70.117,0.824 70.117,3.016 L70.117,3.016 Z" id="Shape"></path>
                <path d="M92.733,11.444 C92.733,20.946 91.401,22.452 82.843,22.452 C74.33,22.452 72.997,20.946 72.997,11.444 C72.997,1.941 74.33,0.436 82.843,0.436 C91.401,0.436 92.733,1.941 92.733,11.444 L92.733,11.444 Z M78.502,11.444 C78.502,17.765 78.889,18.323 82.844,18.323 C86.844,18.323 87.188,17.765 87.188,11.444 C87.188,5.123 86.844,4.564 82.844,4.564 C78.889,4.564 78.502,5.123 78.502,11.444 L78.502,11.444 Z" id="Shape"></path>
                <path d="M115.438,7.833 L115.438,22.195 L109.977,22.195 L109.977,8.262 C109.977,4.951 109.418,4.564 106.407,4.564 C103.485,4.564 102.022,5.037 102.022,8.004 L102.022,22.194 L96.605,22.194 L96.605,1.081 L97.035,0.694 L99.486,0.694 C100.991,0.694 101.721,1.167 101.98,2.973 C103.184,1.339 104.689,0.435 108.516,0.435 C114.148,0.436 115.438,1.253 115.438,7.833 L115.438,7.833 Z" id="Shape"></path>
            </g>
        </g>
    </g>
</svg>